<svg xmlns="http://www.w3.org/2000/svg" viewBox="0 0 55 55" shape-rendering="crispEdges"><path fill="#ffffff" d="M0 0h55v55H0z"/><path stroke="#0b141a" d="M1 1.5h7m2 0h4m2 0h2m2 0h1m4 0h1m2 0h2m1 0h1m2 0h3m1 0h4m1 0h1m3 0h7M1 2.5h1m5 0h1m5 0h1m2 0h1m2 0h8m1 0h1m2 0h5m5 0h1m1 0h2m2 0h1m5 0h1M1 3.5h1m1 0h3m1 0h1m1 0h2m1 0h1m2 0h3m7 0h1m2 0h1m1 0h3m2 0h5m1 0h2m1 0h1m2 0h1m1 0h3m1 0h1M1 4.5h1m1 0h3m1 0h1m1 0h2m2 0h3m2 0h3m5 0h1m2 0h3m2 0h2m1 0h7m1 0h1m1 0h1m1 0h3m1 0h1M1 5.5h1m1 0h3m1 0h1m1 0h1m1 0h1m1 0h1m1 0h3m2 0h1m1 0h8m2 0h1m1 0h4m2 0h4m3 0h1m1 0h3m1 0h1M1 6.5h1m5 0h1m1 0h1m1 0h1m2 0h3m3 0h6m3 0h1m2 0h2m1 0h1m1 0h2m2 0h1m1 0h1m3 0h1m5 0h1M1 7.5h7m1 0h1m1 0h1m1 0h1m1 0h1m1 0h1m1 0h1m1 0h1m1 0h1m1 0h1m1 0h1m1 0h1m1 0h1m1 0h1m1 0h1m1 0h1m1 0h1m1 0h1m1 0h1m1 0h1m1 0h7M9 8.5h1m1 0h1m3 0h2m1 0h3m2 0h3m3 0h1m1 0h1m2 0h2m2 0h8M1 9.5h1m1 0h5m2 0h4m1 0h1m1 0h1m2 0h3m2 0h5m2 0h2m3 0h1m2 0h1m1 0h1m2 0h1m1 0h5M2 10.5h1m2 0h2m1 0h1m3 0h1m3 0h2m1 0h1m2 0h3m2 0h1m2 0h2m1 0h1m3 0h1m1 0h2m1 0h5m1 0h1m2 0h1m1 0h1M2 11.5h2m3 0h1m1 0h5m2 0h1m1 0h6m5 0h6m1 0h1m1 0h1m1 0h1m4 0h1m1 0h1m1 0h1M1 12.5h3m2 0h1m1 0h3m2 0h3m1 0h1m2 0h2m1 0h2m6 0h2m6 0h1m2 0h1m1 0h1m2 0h1m1 0h4M2 13.5h3m2 0h1m1 0h1m1 0h4m1 0h1m1 0h1m1 0h1m1 0h2m1 0h4m1 0h6m2 0h3m5 0h1m1 0h6M4 14.5h3m3 0h1m3 0h2m2 0h4m4 0h3m2 0h1m1 0h1m1 0h4m2 0h1m1 0h3m6 0h1M3 15.5h1m2 0h3m1 0h1m2 0h8m2 0h1m1 0h1m2 0h5m2 0h4m3 0h1m2 0h1m1 0h5M2 16.5h3m1 0h1m3 0h1m4 0h1m4 0h4m1 0h2m6 0h1m1 0h1m1 0h1m1 0h3m1 0h1m1 0h5m2 0h2M4 17.5h1m2 0h1m1 0h1m1 0h1m2 0h1m2 0h1m2 0h1m3 0h1m1 0h2m1 0h3m1 0h4m1 0h1m1 0h1m2 0h1m5 0h2m2 0h1M5 18.5h2m2 0h3m2 0h3m3 0h7m1 0h1m1 0h2m3 0h2m6 0h1m1 0h4m1 0h1m2 0h1M2 19.5h2m1 0h3m1 0h2m1 0h1m3 0h1m1 0h1m1 0h1m2 0h5m2 0h3m1 0h1m2 0h1m4 0h3m2 0h2m1 0h1m1 0h2M3 20.5h2m4 0h3m1 0h1m1 0h2m3 0h1m1 0h3m4 0h1m2 0h1m2 0h3m2 0h1m1 0h1m2 0h9M3 21.5h1m3 0h1m2 0h2m1 0h1m3 0h2m2 0h1m1 0h3m1 0h1m1 0h1m2 0h1m1 0h2m2 0h1m1 0h1m1 0h7m1 0h1M1 22.5h1m1 0h4m4 0h2m1 0h3m5 0h1m1 0h1m1 0h3m1 0h1m1 0h2m3 0h1m2 0h1m1 0h3m2 0h5m1 0h1M5 23.5h1m1 0h5m2 0h1m3 0h4m1 0h1m1 0h2m2 0h4m1 0h2m1 0h2m1 0h1m3 0h6m1 0h3M2 24.5h1m1 0h3m2 0h1m1 0h2m1 0h1m3 0h1m2 0h1m2 0h1m3 0h3m1 0h1m1 0h1m2 0h1m2 0h1m1 0h1m1 0h2m2 0h2m1 0h1m1 0h1M4 25.5h6m1 0h1m3 0h2m1 0h1m1 0h1m2 0h1m1 0h10m1 0h1m3 0h4m1 0h5m1 0h3M3 26.5h1m1 0h1m3 0h1m1 0h9m1 0h1m2 0h2m3 0h1m2 0h3m5 0h2m1 0h3m3 0h2m2 0h1M5 27.5h1m1 0h1m1 0h1m2 0h2m3 0h1m1 0h1m4 0h2m1 0h1m1 0h1m1 0h4m1 0h1m1 0h3m2 0h1m1 0h1m1 0h1m1 0h1m2 0h1M1 28.5h3m1 0h1m3 0h1m2 0h2m1 0h2m4 0h2m1 0h2m3 0h1m1 0h2m3 0h3m2 0h1m1 0h1m1 0h1m3 0h2m1 0h2M5 29.5h7m2 0h2m1 0h1m3 0h2m2 0h7m3 0h3m4 0h10M2 30.5h3m1 0h1m5 0h2m4 0h1m3 0h5m2 0h2m1 0h1m3 0h1m6 0h1m1 0h3m1 0h1m1 0h3M2 31.5h4m1 0h1m1 0h1m3 0h1m2 0h3m1 0h1m1 0h1m2 0h7m4 0h2m3 0h1m2 0h3m1 0h1M1 32.5h3m1 0h2m1 0h3m4 0h6m1 0h1m1 0h2m1 0h1m1 0h2m5 0h2m2 0h1m5 0h1m2 0h2m1 0h2M1 33.5h1m2 0h2m1 0h4m1 0h2m3 0h1m1 0h2m1 0h2m1 0h5m3 0h2m2 0h1m1 0h1m1 0h8m2 0h1m1 0h1M5 34.5h1m3 0h1m2 0h1m3 0h2m1 0h1m2 0h4m4 0h1m1 0h1m1 0h4m1 0h2m1 0h2m1 0h9M1 35.5h1m1 0h2m1 0h5m1 0h1m2 0h1m2 0h1m1 0h1m2 0h1m2 0h2m3 0h5m5 0h6m2 0h1m3 0h1M2 36.5h1m1 0h1m6 0h1m1 0h1m1 0h2m2 0h1m1 0h3m2 0h1m3 0h1m3 0h1m4 0h3m1 0h1m1 0h3m1 0h2M2 37.5h1m1 0h2m1 0h2m1 0h1m1 0h1m3 0h2m2 0h3m4 0h3m3 0h1m3 0h1m1 0h1m2 0h1m1 0h3m3 0h2m1 0h1M1 38.5h1m3 0h2m1 0h2m2 0h1m3 0h2m4 0h1m4 0h3m1 0h1m1 0h2m1 0h3m4 0h1m1 0h1m1 0h1m3 0h1M1 39.5h1m1 0h1m1 0h1m1 0h1m1 0h2m2 0h1m2 0h1m1 0h1m1 0h1m1 0h1m1 0h1m3 0h6m3 0h1m1 0h1m1 0h1m2 0h2m1 0h1m1 0h2m1 0h1M1 40.5h5m2 0h1m1 0h1m1 0h2m2 0h3m6 0h1m1 0h5m2 0h7m2 0h1m1 0h1m1 0h3m1 0h3M3 41.5h5m1 0h1m4 0h3m1 0h3m1 0h1m2 0h2m4 0h2m3 0h2m1 0h1m1 0h1m1 0h6M2 42.5h2m5 0h1m1 0h2m5 0h1m1 0h1m5 0h1m5 0h1m1 0h1m1 0h4m3 0h1m1 0h1m1 0h1m1 0h5M1 43.5h2m1 0h5m1 0h3m1 0h2m1 0h1m2 0h2m1 0h3m2 0h1m4 0h2m8 0h1m2 0h1m4 0h1M2 44.5h2m4 0h2m3 0h2m1 0h1m1 0h1m1 0h2m2 0h1m2 0h2m2 0h1m4 0h2m4 0h1m1 0h1m1 0h3m1 0h1M4 45.5h1m2 0h3m2 0h2m1 0h3m1 0h2m1 0h1m1 0h6m3 0h2m2 0h5m3 0h5m1 0h1m1 0h1M9 46.5h4m1 0h2m3 0h2m1 0h1m1 0h2m3 0h1m2 0h1m2 0h3m1 0h1m4 0h2m3 0h2m1 0h2M1 47.5h7m2 0h1m4 0h2m2 0h1m3 0h1m1 0h1m1 0h1m1 0h3m2 0h1m2 0h1m2 0h2m1 0h3m1 0h1m1 0h1M1 48.5h1m5 0h1m1 0h2m3 0h1m7 0h2m1 0h1m3 0h3m3 0h1m1 0h1m4 0h1m1 0h2m3 0h2m2 0h1M1 49.5h1m1 0h3m1 0h1m1 0h1m1 0h1m2 0h2m1 0h4m2 0h1m1 0h6m1 0h3m1 0h3m1 0h1m3 0h8M1 50.5h1m1 0h3m1 0h1m1 0h1m1 0h2m1 0h1m1 0h1m2 0h1m2 0h1m1 0h2m1 0h1m3 0h1m1 0h2m1 0h2m4 0h2m3 0h2m2 0h2M1 51.5h1m1 0h3m1 0h1m1 0h2m2 0h5m1 0h2m4 0h3m1 0h1m1 0h3m5 0h1m4 0h3m1 0h5M1 52.5h1m5 0h1m2 0h1m1 0h1m3 0h1m3 0h1m2 0h1m1 0h2m4 0h1m1 0h1m2 0h1m1 0h4m2 0h1m2 0h3m1 0h2M1 53.5h7m1 0h2m1 0h1m1 0h1m1 0h4m2 0h1m4 0h2m1 0h2m1 0h1m5 0h1m1 0h1m3 0h1m3 0h3"/></svg>
